<svg version="1" xmlns="http://www.w3.org/2000/svg" width="933.333" height="933.333" viewBox="0 0 700.000000 700.000000"><path d="M295 50.7c-3.7 1.3-12.9 6-17 8.7-6.7 4.4-26.7 25.1-33.6 34.7-20.3 28.6-32.9 61.6-32.3 84.6.2 6.3-.1 8.6-1.8 11.8-5.8 11-15.2 34.3-17.7 43.6-.8 3-2.1 7.4-2.9 9.9-2.8 7.9-4.9 24.4-4.5 34.7.5 12.4 5 31.2 7.8 32.1.9.3 1.1 0 .5-1.4-1.7-4.3-2.4-10.6-2.4-23.4 0-18.4 3.1-33.5 9.6-46.3 1.3-2.7 2.6-4.7 2.9-4.5.2.3-.3 5.5-1.1 11.6-4.6 34.9-2.3 59.1 7.5 79.7 5 10.5 17.3 21.5 24 21.5 2.8 0 2.5 1.4-.7 3.1-4.3 2.1-14.2 9.8-15.2 11.8-1.6 2.9.7 4.1 7.6 4.1 3.5 0 6.3.4 6.3.8 0 .5-3 4.4-6.7 8.7-20.7 23.6-33.6 43.6-37.2 57.1-.6 2.3-1.1 10.9-1 19 0 12.8-.3 15.8-2.1 21.4-2.5 7.3-2.9 9.1-5.9 23.8-1.4 6.7-2.1 14-2.1 21 0 12.2 1.4 16.5 2.4 7.8.4-3.2 2-7.7 3.7-10.8l3-5.3-.5 5c-3.1 28.6-1 45.7 7.7 63.5 5.8 11.9 14.5 22 21.5 24.9 4.3 1.8 5 .9 2.1-2.6-2.2-2.6-4.6-10.1-7.8-23.6-.6-2.6-1.1-8-1.1-12v-7.2l5-3.5c6.7-4.8 21-20.4 27.4-29.8 4.8-7.1 14.6-25.9 19.6-37.6 4-9.4 6.1-19.8 6.9-33.6.8-14.9-.3-44.9-1.9-49.4-.5-1.6-1.3-11-1.6-21-.5-15.2-.4-18.4.9-20.1 1.4-1.9 1.7-1.7 7.9 4 5.7 5.4 8.5 7.3 18 12.2 1.5.8 4.1 1.3 5.7 1.1l2.9-.3-1.5-4.5c-.8-2.4-2.6-6-3.9-7.9-3.7-5.4-3.2-6.2 2.7-4.1 8.5 3.2 19.6 5 29.9 5 10.4 0 16 1.3 16 3.7 0 3.1-18.4 23.3-21.2 23.3-1.1 0-4.7 2.6-8.1 5.9-3.4 3.2-7.4 6.1-8.8 6.4-3.2.8-7.9 5.4-7.9 7.6 0 1-.9 3.6-2 5.8-1.1 2.3-2.5 6.3-3.2 9-.7 2.6-2 6-3 7.4-2.5 3.8-8.4 16.5-10.3 22.4-.9 2.7-2 5.9-2.5 7-4.9 11.2-6.1 18.6-4.5 27.3.7 4.1.6 4.5-3.2 8.5-4.2 4.5-9.3 11.2-9.3 12.2 0 .4-1.3 2.5-2.8 4.8-7.7 11.4-14.2 29.3-14.2 38.8.1 20.6 17.6 46.5 33.4 49.5 4.7.8 6.7-.9 9.6-8.4 1.2-3.1 3.1-7.6 4.1-10 2.2-4.8 1.8-6.2-1.6-6.2-2.4 0-13.6-5.5-18.6-9.2-2.7-2-2.9-2.7-2.9-8.2.1-11.6 3-28.6 5-28.6.5 0 4 2.7 7.7 6.1 10.3 9.2 10.2 9.2 17.3 8.1 3.8-.5 6.3-.5 6.7.1.3.5.5 13.2.4 28.2-.1 16.6.2 28.9.8 31.3 1.2 4.4 2.3 4.9 17.6 7.7 5 1 10.2 1.9 11.7 2.2 2.4.4 2.8 1.1 3.3 5.2.4 2.5 1.3 7 2 10 .8 3 1.2 5.8 1 6.1-.2.4-4.8 1-10.2 1.4-16 1.1-13.7 2.7 3.2 2.2 8.3-.3 13.7-.3 12 0-1.6.2-6.8.9-11.5 1.6-7.6 1-8.1 1.2-5 1.9 1.9.4 13 .7 24.5.7 12.1 0 19.3-.4 17-.8-2.5-.5 2-.8 11.9-.8 13.8-.1 16.1-.3 16.9-1.7.7-1.3 2.1-1.6 6.6-1.4 9 .4 14.1 0 14.1-1.1 0-.6-8.5-1-23.5-1-12.9 0-23.5-.1-23.5-.3 0-.1.9-4.3 1.9-9.2l1.8-9 9.9-.5c10.7-.5 13.6-1.7 17.1-6.8 4.2-6.2 5.4-12.3 3.4-17.4-.5-1.3-1.8-6.4-3-11.3-1.8-7.4-2.1-11.4-1.9-22.4.2-10 .6-13.5 1.6-13.9.7-.2 3.9 2.2 7.1 5.4 5.4 5.5 6.1 6.7 9.5 17.1 3 9.4 5.2 17.8 8.1 31 .3 1.3 1.2 2.3 2.1 2.3 2.7 0 19.3 9.2 24.2 13.4 8.9 7.5 8.1 7.3 7.6 2.4-1.9-17.1-7.2-31-16-42.4-2.4-3.1-4.4-6-4.4-6.5 0-1.5 2.8-1 7 1.1 2.2 1.1 7.8 2.5 12.7 3 4.8.6 11.3 1.5 14.3 2 8.9 1.6 24.2 2.3 28 1.3 3.4-.9 3.5-1.1 3.3-5.9 0-2.7-1.5-9.1-3.2-14.2-3.8-11.4-3.9-12.6-.8-11.6 3.7 1.1 11.5 5.3 12.3 6.5.4.7.8 8.9 1 18.3.1 10.4.7 17.2 1.3 17.4.5.2 1.9-1.4 3-3.5 2.9-5.7 10.8-29.9 12-36.7 1.9-10.3.8-53.3-1.5-59-1.3-3.4 1.3-.8 3.9 3.9 6 10.7 6.9 14.8 7.3 33.4.3 9.6.6 17.6.8 17.8.9.9 2.7-2.9 4.2-8.8 2-7.5 2.3-35.6.5-42.6-.6-2.4-1.6-6.2-2.1-8.5-1.7-6.7-6.9-17.7-12.6-26.7-4.4-6.9-5.4-9.3-5.4-12.8 0-2.3-.4-6.2-.9-8.5-.6-2.4-1.5-7.2-2.1-10.8-2.3-13.1-7.2-21.3-20.5-34.4-10.3-10.2-14-12.8-29.9-21.1-3.2-1.7-5.8-3.5-5.8-4 .1-.5 2.7-1.7 5.9-2.7 3.1-1 6.2-2.3 6.7-2.8 1.8-1.8-.1-2-4-.4-5.8 2.5-20.4 2.2-26.9-.4-4.5-1.8-5-2.3-4.7-4.9.2-1.5.7-3.2 1.1-3.6.5-.4 5.8-.8 11.8-.8 8.8 0 12 .5 15.8 2.1 2.6 1.1 5 1.8 5.3 1.5.9-.9-1.7-2.9-6.1-4.6-2.3-.9-4.2-2.1-4.2-2.7 0-.5 4.2-3.2 9.4-5.8 7.2-3.7 11.2-6.6 17.5-12.8 7-6.9 9.1-9.7 13.8-19.1 10.2-20.1 12.8-30 13.5-51 .4-12.1.1-18.4-1.1-25.7-.9-5.4-1.6-11.9-1.6-14.5 0-4.8.1-4.8 5.1-7.2 11.1-5.2 12.9-14.1 5.4-25.7-3.8-5.8-18.4-24.4-37-47.3-2.2-2.8-5.8-7.4-8-10.3-7.7-10.2-18.9-21-29-27.7-11.4-7.6-26.2-15.1-35-17.6-3.3-.9-6.8-2.1-7.7-2.6-.9-.5-7-1.8-13.5-2.9-9.7-1.7-15.1-2-30.3-1.8-21.6.3-19.7 1-33-12-13.7-13.5-22.2-18.2-32.6-18.1-3.8 0-7.6.3-8.4.6zm28.5 19.4c10.6 3.4 14.5 5.9 14.5 9.4 0 2.6-2.4 3.9-10 5.6-9.7 2.1-35.3 11-42 14.6-3.6 1.9-9.8 6-13.8 9-9.8 7.5-27.5 26.3-35.3 37.4-8.2 11.8-9.9 13.6-11 11.8-1.7-2.7-.9-12 1.8-20.2 3-9.1 10.1-23.4 13.9-28.1 1.4-1.7 4.7-6.1 7.4-9.7 5.2-7.1 16.6-17.9 22.8-21.6 8.1-5 19.7-9.7 25.7-10.6 5.5-.9 19.9.5 26 2.4zm133.3 40.6c2 1.8 3.9 3.3 4.3 3.3.4 0 3.1 2.3 6 5.1 3.6 3.3 4.4 4.5 2.4 3.3-4.2-2.6-13.3-9.3-17.5-12.9-1.9-1.6-4.8-4-6.5-5.3-2.6-2-2.2-1.9 2.3.5 3 1.5 7 4.3 9 6zM367 136.4c13 1.7 22.7 3.7 31.5 6.8 11.6 4 13 5.5 20 21.7 1.9 4.6 3.4 8.6 3.1 8.8-.2.3-1.5-.2-2.8-1-1.2-.9-5-2.5-8.3-3.7-3.3-1.2-7.8-2.9-10-3.7-21.2-8-52.5-10.6-76.6-6.2-21.9 3.9-39.7 11.2-59.1 24.4-6 4.1-10.8 6.7-10.8 6 0-5.2 7.9-25.4 11.5-29.4 8-8.8 29-18.1 48.5-21.5 22.8-3.9 35-4.4 53-2.2zm-144.8 14c-.2 4.2.1 8.4.7 9.5.9 1.7.7 2.8-1.2 5.8-1.2 2.1-3.1 5.5-4.2 7.6l-2 3.8-.3-3.3c-.2-1.8.1-4.9.6-6.8.6-1.9 1.3-5.5 1.7-8 .4-2.5 1.1-5 1.5-5.5.4-.6 1.1-2.8 1.5-5 .6-3.6 1.3-5.5 1.8-5.5.1 0 .1 3.3-.1 7.4zM516.8 184c4.6 6.6 5.4 13.2 2.2 17.3-3.7 4.7-5.8 3.4-8.6-5.3-2.2-6.5-4-11.7-7.4-20.5-.4-1.1-1.7-4.1-2.9-6.8-1.1-2.6-2.1-5-2.1-5.2 0-1.1 15.6 15.9 18.8 20.5zm-25 18.5c-.3 4.9-.3 5-3.9 5.3-4.7.4-7.1-2.2-6.7-7.4.3-3.4.6-3.8 4.3-4.9 5.3-1.6 6.7.1 6.3 7zm38.2-.2c0 5.2-4.7 10.7-9.2 10.7-2 0-4.2-4-2.9-5.3.6-.6 1.1-.7 1.1-.2 0 .5 1.3-.9 3-3.1 1.9-2.5 3-5.1 3-7.2v-3.4l2.5 3c1.4 1.7 2.5 4.1 2.5 5.5zm-156.4 8.5c2.5 3.1 3.2 4.7 2.3 5.2-1.7 1.1 0 3.3 2.1 2.7 1.2-.3 2.7.8 4.6 3.5 4 5.5 8.3 9.6 19.1 18.1 5.1 3.9 9.2 7.5 9.3 7.9 0 .5-2.6.8-5.7.8-7.1 0-14.7 3.3-18.6 7.9-2.3 2.8-3.6 6.1-2.3 6.1.2 0 2.7-1.5 5.5-3.4 6.5-4.4 11.6-5.3 18.1-3.1 6.7 2.2 16.2 9.4 20.6 15.5 2 2.8 3.9 4.9 4.1 4.6 1.1-1-1-6.6-4.7-12.6-2.2-3.5-3.8-6.6-3.6-6.7.2-.2 3.7 1.4 7.7 3.5l7.4 3.9-.2 14c-.1 11.9-.6 15.7-3.2 26.1-2.8 11.1-5.3 17.2-7 17.2-.3 0-2.6-2.5-5-5.6-2.3-3-4.8-5.3-5.4-5.1-.7.2-1.8 2.1-2.5 4.3-1.4 4.2-1.2 6.2 2.9 23.9 2.4 10.3 2.1 10.6-10.4 11.5-7.5.6-10.7 1.3-15.3 3.7-5.5 2.7-5.9 3.1-5.7 6.1.3 2.9 0 3.2-4 4.3-8.7 2.3-12.9 4.2-16.1 7.2-3.4 3.2-3.5 3.7-5.1 16-.6 4.6-5.7 13-8 13.1-.6.1-1.3-2.4-1.7-5.4-3.1-25.2-5.7-28.1-26.9-30-6.3-.5-13.9-1.4-16.9-2-7.6-1.4-18.5-5.7-21.9-8.6-1.6-1.3-3.1-2.4-3.4-2.4-.3 0-2.7-1.4-5.3-3.2l-4.8-3.2 4-3c8.6-6.8 14.1-14 16.2-21.2 1.5-5.2 1.5-8.1.1-8.6-.7-.2 0-2.5 2-5.9 6.7-11.9 7.9-22.8 3.5-32.6-4.3-9.9-11.8-15.6-17.5-13.4-6.4 2.4-10.3 10.5-11.4 23.2-.6 6.3-.3 8.4 1.8 14.7 3.2 9.1 5.1 12.2 8.8 13.5 1.6.6 2.9 1.4 2.9 1.7 0 .5-8.5 5-9.5 5-.2 0-2.4-3.3-4.9-7.3-5.9-9.5-12.1-26.3-10.7-29.2.5-1.1 1.9-4.1 3-6.8 2.2-5.1 10.9-15 15.3-17.3 1.6-.8 5.7-1.4 10.4-1.4 10.2 0 15.7 2.8 20.5 10.7 7.9 12.7 23.1 35.4 23.6 35 .2-.3-.3-2.6-1.1-5.1-1.4-4.2-4.1-26.4-3.3-27.2.2-.2 1.4 1.6 2.7 4 1.2 2.5 2.8 4.4 3.4 4.3.6-.1 1 .4.8 1.1-.1.6.3 1.1.9 1 .6-.2 1.6.6 2.2 1.6 1.9 3.1 3.8 4.9 10.7 10.1 3.6 2.7 8.3 6.4 10.4 8.3 4.3 3.8 21.8 15.4 22.3 14.8.2-.2-1.4-5.7-3.6-12.2-8.6-26.1-10.1-31.6-9.6-34.8.4-1.7.1-14.8-.5-29s-.8-29-.4-32.9c.7-6.9.7-6.9 2.1-4.2.8 1.5 3 4.8 4.9 7.3zm-90.7 1.9c2.5 10.1 2.5 10.1-1.1 11.1-1.8.6-4.1 1.3-5 1.7-1.4.6-1.3-.3.8-6.2 1.4-3.7 2.8-7.6 3.1-8.6.8-2.5 1.1-2.2 2.2 2zm-82.4 14c-.6 3.5-1.5 5.9-4.3 12.3-1 2.4-1.1 2.4-1.1.3-.1-1.2.3-2.4.8-2.8.5-.3 1.2-2 1.6-3.8.8-3.8 2.8-9.7 3.2-9.7.2 0 .1 1.7-.2 3.7zm86.5 1.2c0 1.1.5 2.1 1.1 2.3.5.2 1.3 2.2 1.6 4.6.3 2.3.9 3.9 1.4 3.6.5-.3.9.4.9 1.5 0 1.2.4 2.1 1 2.1.5 0 .6.7.3 1.7-.4 1.1-.3 1.4.5.9.7-.4 1.2-.1 1.2.8 0 .8 1 3.2 2.2 5.2l2.2 3.7-3-.8c-1.6-.4-5.7-.9-9-1.2-4.9-.4-7 0-10.3 1.6-5.1 2.6-10.6 7.4-14.4 12.6l-3 4 .7-4.4c.4-2.4 2.3-8.3 4.2-13 2-4.7 3.7-9.3 3.9-10.2 1.1-5.5 3.1-10.2 4.9-11.1 1.1-.6 2.9-1.9 4-2.9 2.1-2 6.6-2.6 6.6-.9 0 .5.4 1 1 1 .5 0 .7-.7.4-1.5-.4-.8-.1-1.5.5-1.5s1.1.9 1.1 1.9zm24.4 27.1c3.9 4.7 7.7 9.3 8.4 10.1 1.2 1.6 5.5 21.9 4.8 22.6-.7.8-9.2-13.6-17.4-29.7-9.4-18.3-8.9-18.6 4.2-3zM487 283.8c8.2 4.3 10.7 18.9 5 28.8-4.7 8.4-18.5 16.3-30.9 18-4.4.6-5.1.4-5.1-1 0-.9.8-1.9 1.8-2.3 7.3-2.5 16.3-7.7 18.6-10.8l2.8-3.6-2.1-1.8c-1.2-1.1-3.5-2.4-5.1-3.1-1.7-.7-3-1.8-3.1-2.4-.3-3.4.6-6.5 2.7-9.3 2.4-3.2 2.6-3.3 5.4-1.8 3.7 1.9 5.2 4.7 5 9.3-.3 5.7-.1 6.2 1.9 6.2 3.7 0 4.2-6.9 1.1-13.1-2.5-4.8-6.9-7.7-13.2-8.5-2.7-.4-4.8-1.1-4.8-1.6 0-1.6 8.3-4.8 12.5-4.8 2.2 0 5.6.8 7.5 1.8zm-19.4 10.4c-5.6 7.6-5 14.4 1.5 17.3 2.4 1.1 3.9 2.4 3.7 3.3-.3 1.7-8.9 6.7-13 7.7-2.7.7-2.8.6-2.8-3.8 0-3.2-.5-4.9-1.6-5.5-1.3-.7-1.2-1.3 1-3.9 1.5-1.7 4.2-6.5 6.1-10.7 2.7-5.9 3.9-7.6 5.5-7.6 2 0 2 .1-.4 3.2zm-232.5 9.3c1 1.7 3.9 4.8 6.6 7 5.2 4.2 7.8 7.3 6.9 8.3-.3.3-1.4-.2-2.4-1.1-1-.9-3.9-2.6-6.5-3.7-5.2-2.3-7.5-5.7-8.1-12-.4-4.3.5-4 3.5 1.5zm.7 12.9c6.9 3.5 14.6 10 18.1 15.3 3.1 4.7 4 8.3 2 8.3-.6 0-1.7.7-2.5 1.5-2.1 2-4.3.7-12-6.9-6.2-6.3-10.8-13-11.9-17.9-.9-3.4.1-3.4 6.3-.3zm192.3 11.1c2.1 4.4 4.7 11.1 5.6 14.9l1.6 6.8-2.4 1.9c-1.3 1-2.9 1.9-3.5 1.9-1 0-4.3-7.1-7.8-17-1.6-4.6-3.6-19.6-2.7-20.5 1.1-1.2 5.5 4.6 9.2 12zM291 319.1c0 5.7-10.2 19.6-17.3 23.3-3.4 1.9-3.4 1.9-6.5-.4-3.9-2.9-4-4.6-.3-9.6 4.3-5.9 9.4-10.3 14.7-13 6.3-3 9.4-3.1 9.4-.3zm163.5.1c.5 1.3-1.1 9.2-3.7 18.4-1.7 6.2-6.4 14.4-8.2 14.4-2.2 0-4.3-3.3-5.1-7.7-.9-5.8 2.9-14.1 9.8-21.1 5.3-5.4 6.5-6 7.2-4zM257.8 323c.9.5 3.4 1.6 5.6 2.5l3.8 1.5-2 3.2c-1.2 1.8-2.5 3.4-2.9 3.5-.6.2-5.5-7.3-7.1-10.9-.5-1.1.5-1 2.6.2zm179.5 9c-1.1 1.9-2.1 2.6-2.7 2-.6-.6-.3-1.7.9-3 2.7-3 3.9-2.4 1.8 1zm-172.1 12.7c1 .9 1.8 2.9 1.8 4.5 0 2.2-.7 3.2-3.4 4.5-3.2 1.5-3.7 1.5-6.1-.1-3.1-2.1-3.9-3.8-3.1-7 .9-3.7 7.6-4.8 10.8-1.9zm-13.8 5.4c.7 3.8-3.3 9.5-8.2 11.6-4.4 1.8-22.2 3-22.2 1.5 0-1.8 7.4-6.8 17.3-11.8 10.7-5.3 12.2-5.5 13.1-1.3zm24.9 3.8c5.4 3.7 11.7 10.5 16.2 17.5 1.9 3 3.5 5.8 3.5 6.1 0 1.3-3.8.2-10.4-2.9-9.3-4.5-23.4-18.6-18.6-18.6.6 0 1.5-1.1 2-2.5 1.2-3.2 2.2-3.1 7.3.4zm149.6 1.6c.5.6.6 2.5.2 4.5-.6 3.1-1.1 3.5-5.1 4.3-8.8 1.6-31.6-1.9-30.7-4.7.2-.6 3.5-2.1 7.3-3.3 5.7-1.9 8.7-2.3 17.1-2 5.6.1 10.7.7 11.2 1.2zm11.5.5c5.3 2 2.5 8-3.7 8-3.8 0-5.3-6-1.9-7.9 2.2-1.3 2.5-1.3 5.6-.1zm-176 1.9c1 1.5-3.4 13.2-7.9 21.6-6 11-7.1 12.3-8.6 10.8-2.9-2.9 4.5-29.7 8.9-32.3 2.1-1.2 6.9-1.3 7.6-.1zm138.6 8.2c1.9.6 8.7 1.2 15 1.3l11.5.2-.2 2.9c0 1.7-.4 6.7-.8 11.1-.8 8.4.8 16.7 4.3 22.1 2.2 3.5 3.8 2.8 8.5-3.2l4.2-5.5.6 39.8c.4 30.6.9 41 2.1 45.3 1.9 7.2 7.9 19.3 14.5 29.4 2.9 4.4 5.3 8.6 5.3 9.2 0 .8-1.2 1.3-2.8 1.3-3.1 0-5.9-2.5-8.9-8-1-1.9-3.1-5.4-4.6-7.7-1.5-2.4-2.7-4.5-2.7-4.8 0-.2-1.7-3.3-3.8-6.7-6-10-17.5-34.1-23.3-48.8-7.3-18.6-13.2-29.6-22.5-41.6-2.1-2.8-5.2-6.8-6.9-9-1.6-2.1-5.7-6.9-9.2-10.6-3.7-3.9-6.3-7.5-6.3-8.8 0-2.4 3.5-4.1 14-7 8.1-2.2 7.8-2.2 12-.9zm40.3 6.9c1.5 8 .2 18.3-3 24.2-1.5 2.8-3.3 5.3-3.9 5.5-.7.2-2-1.8-3-4.4-2.3-5.9-2.6-22.1-.6-27 1.2-2.8 1.7-3.1 5.5-3 4.1.2 4.2.3 5 4.7zm-95.3 7c0 3.6-.3 4-2.4 4-3.4 0-3.8-1.1-1.6-4.8 2.6-4.3 4-4 4 .8zm28.4 1c1 2.6 1 4.2-.4 9.8-2.5 9.5-6.5 19.7-10.7 26.8-2.8 4.9-4 6-5.5 5.6-1.6-.4-1.9-1.1-1.4-3.5.3-1.6.1-3.5-.4-4.2-.8-.9 1.2-5.8 7-17.4 4.4-8.9 8-17 8-18.1 0-3 1.9-2.4 3.4 1zm-143.7 2.2c-.8 1.8-3.3 6.2-5.6 9.7-2.2 3.5-4.1 7-4.1 7.8 0 .7-.3 1.3-.8 1.3-.4 0-1.5 1.7-2.5 3.7-1 2.1-4.2 8.5-7.2 14.3-3 5.8-5.5 11-5.5 11.7 0 .7-.4 1.3-1 1.3-1.1 0-1.4-7.7-.2-8.2.4-.2 1.8-3 3.1-6.3 1.4-3.3 2.7-6.2 3-6.5.4-.3 1.7-2.9 3-5.7 1.3-2.9 3.2-6.1 4.1-7 .8-1 3.2-4.5 5.3-7.9 3.2-5.3 8.2-11.4 9.3-11.4.3 0-.2 1.5-.9 3.2zm240.4.8c3.9 2.2 7.3 4 7.6 4 .9 0 12.1 8.2 18.8 13.7 13.2 10.9 18.6 19.5 19.3 30.3.2 3.6.2 6.3 0 6-.3-.3-4.2-5.5-8.8-11.5-8.4-11.2-28.7-32.7-39.3-41.6-3.2-2.7-5.5-4.9-5.2-4.9.3 0 3.7 1.8 7.6 4zm-122.6 5.3c2 1.6 2.7 3.3 2.8 5.9 0 2.1-.1 4-.4 4.3-.3.2-2.1 0-4-.5-1.9-.6-5.5-.8-8.1-.4-4 .5-4.8.3-5.7-1.5-1.8-3.2-1.3-5.8 1.5-8 3.7-2.9 10.4-2.8 13.9.2zm-27.6 15.8c.7 2.7 1.2 5.2 1 5.3-.2.2-2.3.6-4.6 1-4.3.6-4.3.6-4.3-2.5 0-3.3 3.4-8.9 5.4-8.9.7 0 1.8 2.3 2.5 5.1zm26.2-3c4.3 1.3 6.8 5.5 5.1 8.5-.7 1.3-2.7 1.7-10.6 1.9-9.4.3-9.8.2-10.8-2.1-3-6.6 6.3-11.3 16.3-8.3zm-17.8 11.2c.3.8.1 2-.4 2.8-1.1 1.9-3.4-.3-2.6-2.5.8-2 2.3-2.1 3-.3zm-6.5 4.5c.3 3.2.2 3.3-2.9 3-3.6-.3-5.6-2.6-4.6-5.2.5-1.2 1.6-1.6 3.9-1.4 2.9.3 3.3.7 3.6 3.6zm-11.8-1.4c0 .3-.4.8-1 1.1-.5.3-1 .1-1-.4 0-.6.5-1.1 1-1.1.6 0 1 .2 1 .4zm38.2.1c1.6.4 2.8 1.1 2.6 1.6-.2.6-4.1 2.5-8.8 4.4-8.6 3.5-9.9 3.4-10-.7 0-.9-.3-2.3-.6-3.1-.3-1 .1-1.7 1.3-1.9 3.5-.8 12.5-.9 15.5-.3zM305 419c0 .5 1.3 1 2.9 1 1.7 0 3.3.5 3.7 1.1.7 1.2-4.3 6.9-6.2 6.9-.6 0-2.4-1.6-3.9-3.6-2.6-3.4-2.6-3.6-.9-4.9 2.2-1.7 4.4-1.9 4.4-.5zm22.5 2.1c1.1 1.7-.1 2.1-1.5.4-.8-.9-.8-1.5-.2-1.5.6 0 1.4.5 1.7 1.1zm22.5 3.2c0 1.6-.9 2.8-2.5 3.5-1.3.6-3.1 2.6-4.1 4.3-1.4 2.8-1.4 3.8-.4 7 1.1 3.3 1 4.5-.4 8.4-1 2.5-2.1 4.5-2.5 4.5-.4 0-1.3-1.6-2-3.5-.9-2.6-.9-4-.1-5.5.8-1.6.8-3.4 0-6.8-.6-2.6-1.2-5.3-1.3-6.1-.1-.9 2.4-2.8 6.1-4.8 3.5-1.8 6.6-3.3 6.8-3.3.2 0 .4 1.1.4 2.3zm-22.6 2.8c1.3 1.9 1.2 2.5-.7 6.3l-2.2 4.2-1.2-3c-1.3-3.5-1.6-7.9-.6-8.9 1.2-1.3 3.2-.7 4.7 1.4zm-11.8 2.6c-.3 2.1-.8 6.3-1.2 9.5-.5 4.4-1.2 6.2-3.5 8.4-1.6 1.5-3.1 2.5-3.3 2.3-.7-.7 1.9-11.6 4.4-18.2 2.5-6.5 4.5-7.6 3.6-2zm42.5-1.7c2.1 1.7 2.2 2.1.9 3-3.7 2.4-7.8.2-6.4-3.5.8-2 2.7-1.9 5.5.5zm-9.6 8.4c.4 6 0 6.6-2.1 3.8-1.6-2.1-1.8-5.6-.3-8.4 1.5-2.8 2-1.8 2.4 4.6zm-13.5-2.5c1.9 3.6 1 10.1-1.4 10.1-1.4 0-4-9.6-3-11.1.9-1.5 3.3-1 4.4 1zm37.9 1.5c6.5 4.9 10.9 9.6 8.8 9.6-.8 0-1.8-.3-2-.8-.3-.4-3.8-1.8-7.9-3.1-12.8-4.1-15.3-6-10.1-7.9 4.6-1.7 6.3-1.4 11.2 2.2zm-52.2 4c-.3.8-1.6 2-2.7 2.6-2 1.1-2.1 1-1.5-1.2 1.1-3.4 2.6-5.1 3.8-3.9.5.5.7 1.6.4 2.5zm39-.2c1.9 2.1 4.3 8.5 4.3 11.5 0 2-2.5 1.5-4.7-1-2.2-2.3-4.3-12.7-2.6-12.7.5 0 1.9 1 3 2.2zm-37.3 9c.6 3.7.4 4.4-2 6.5-1.5 1.3-2.9 2.3-3 2.3-.2 0-1.1-1.7-1.9-3.7-1.5-3.6-1.5-3.7 1.2-6.5 3.7-3.8 4.9-3.5 5.7 1.4zM368 446c.6 1.2 1 3.8.8 5.8-.4 3.6-.4 3.6-1.5 1.2-2.8-6.6-2.3-12.5.7-7zm90.5 4.7c1.8 6.5 11.9 27.6 17.7 37.1 2.1 3.4 3.8 6.4 3.8 6.6 0 1.9 11.7 17.2 19 24.9 5.3 5.6 9.5 11 10 12.8l.9 3.1-3.8-.6c-3.6-.5-15.5-6.2-19.1-9.1-.8-.6-3.1-1.9-5-2.8-4-1.8-16.1-13.9-20.7-20.7-1.6-2.5-3.5-6.2-4.2-8.3-.6-2-1.5-5.2-2.1-7-.5-1.8-1-12-1-22.5 0-16 .2-19.2 1.4-19.2.9 0 2.1 2.2 3.1 5.7zm-201.9 16.8c-.8 16.6-4.1 28.5-10.6 38.8-4.6 7.1-21.3 23.7-23.9 23.7-1.2 0-2.1-.4-2.1-.8s2.1-3.6 4.8-7.1c13.8-18.4 21-30.9 24.1-42.1.7-2.5 1.6-5.9 2.1-7.5.5-1.7 1.7-7.7 2.6-13.4 1.7-9.6 1.9-10.2 2.7-7 .5 1.9.7 8.8.3 15.4zm80.5-13.3l2.1 4.2 3.7-4.1c3.6-4.1 3.7-4.2 8.4-3.4 7.3 1.2 8.7 3.1 9.4 13.4.5 7.2.3 8.7-.9 8.7-.7 0-1.9-.5-2.6-1.2-.9-.9-1.9-.9-4.5 0-3.9 1.4-15.1 1.4-19-.1-2-.7-3.4-.6-5 .2-1.3.7-4.9 1.1-8.2.9l-6-.3-.3-3.4c-.3-2.9.4-4.1 5-8.8 6-6.2 11.4-10.2 14-10.2 1.1-.1 2.6 1.5 3.9 4.1zm-24.2-.1c1.9 5.4 1.4 7.6-2.4 10.5-2 1.5-3.7 2.5-3.9 2.3-.2-.2 0-3.3.5-6.8 1.3-9.2 3.8-11.7 5.8-6zm60.2 17.9c1.6 8.4 2.8 18.9 2.8 24.5 0 4.4-.1 4.7-1.1 2.5-1.8-4.2-7.5-27.2-8.3-33l-.7-5.5 3.1 3c2.3 2.3 3.4 4.6 4.2 8.5zm-72.4 4.2c-.2 1.3-.4.5-.4-1.7-.1-2.2.1-3.2.4-2.3.2 1 .2 2.8 0 4zm45.8-1.2c.4.6-1.2.9-4.2.9-4.7-.2-4.7-.2-1.3-.9 1.9-.4 3.8-.8 4.2-.9.4 0 1 .3 1.3.9zm191.9 8.9c3.9 10.2 5.4 18.5 6 32.1l.5 12.5-1.3-9.5c-.8-5.2-2.2-11.3-3.1-13.5-1-2.2-2.8-9.7-4.1-16.8-1.3-7-2.6-13.3-2.9-14-.4-.6 0-.3.9.7.8 1 2.7 4.9 4 8.5zm-209.6-4.3c1.8.4 2.2.9 1.7 2.2-1.6 3.7-1.1 5.7 1.5 5.7 1.9 0 2.6-.6 3-3.1 1-4.9 1.8-5.4 7.4-5.4 5.3 0 5.3 0 7.7 4.5 2.1 4 4.5 5.5 6.1 3.9.3-.3-.1-1.9-.9-3.6-1.8-3.5-.8-4.8 3.8-4.8 2.4 0 2.7.5 3.9 6.2.6 3.5 1.6 7.8 2.2 9.6.5 1.8.7 3.6.3 4-.3.4-12.3.7-26.5.7-19.1 0-26.2-.3-27.1-1.2-1-1-1-3 0-9.4.7-4.4 1.4-8.6 1.7-9.3.5-1.2 9.6-1.2 15.2 0zm-29.1 4.1c-.3 1-.5.4-.5-1.2 0-1.7.2-2.4.5-1.8.2.7.2 2.1 0 3zm-23.5 21.6l3.8 3.2-3.3 3.7c-1.7 2-4.9 6.7-7.1 10.4-3.3 5.8-3.7 7-2.7 9.1.9 2 .7 3.8-.9 9.1-3.3 11.4-5 37.6-2.7 44.2.2.8 1.3 4.3 2.2 7.7 1.8 6.3 3.5 8.3 3.5 4.1 0-1.2.8-3 1.8-4.1 1.6-1.9 1.6-1.9-.5-1.3-1.9.6-2.2.2-3.1-4.6-.5-2.9-1-6.3-1-7.6-.1-2.5 1.6-3 2.4-.7.4.8 1.4 1.5 2.3 1.5 1 0 2.6.8 3.7 1.8s3.2 2.2 4.6 2.5c5.8 1.5 7.9 2.7 7.1 3.9-.4.7-2.4 5.3-4.3 10.3-3.3 8.2-3.8 9-6 8.6-4.8-.6-9.4-3.6-14.8-9.5-1.5-1.6-3.4-3.6-4.2-4.5-2.9-3-7.7-11.6-9.9-17.6-6-15.8-2.7-32.8 10.6-54.8 4.1-6.9 13.1-18.7 14.1-18.7.4.1 2.4 1.5 4.4 3.3zm38.7 8.1c8.3 2.1 26.6 3.9 33 3.3 3.1-.3 7.6-.2 10.1.3 3 .6-2.5.8-16 .5-20.8-.3-32.5-1.8-33.4-4.2-.7-1.6-.6-1.6 6.3.1zM291 533c0 .5-.2 1-.4 1-.3 0-.8-.5-1.1-1-.3-.6-.1-1 .4-1 .6 0 1.1.4 1.1 1zm-3.2 9.1c.2 2.3.2 2.3-1.3.5-1.8-2.4-2-3.9-.2-3.4.6.3 1.3 1.5 1.5 2.9zm182.7 6.9c.3.5.1 1-.4 1-.6 0-1.1-.5-1.1-1 0-.6.2-1 .4-1 .3 0 .8.4 1.1 1zm16.3 1.5c-.3.3-.9-.2-1.2-1.2-.6-1.4-.5-1.5.5-.6.7.7 1 1.5.7 1.8zm.2 13.1c0 2.2-.2 2.4-1.4 1.4-.8-.6-1.2-1.8-.9-2.6.9-2.3 2.3-1.6 2.3 1.2zm-56.8 9.4c4.1 0 16 13.9 20.6 24 1.4 3 3.6 9.5 4.8 14.5 2.8 11.8 2.4 12.7-3.6 7.2-2-1.7-3.8-3.2-4-3.3-1.2-.2-9.5-4.7-10-5.3-.3-.4-2.4-1.3-4.7-1.9-5-1.5-5.1-1.5-6.4-8.9-.6-3.2-2.6-11.3-4.5-17.9-1.9-6.7-3.4-12.4-3.4-12.6 0-.3 2.1.5 4.8 1.8 2.6 1.3 5.5 2.4 6.4 2.4zm57.5 1.7c-.3 1-.5.2-.5-1.7s.2-2.7.5-1.8c.2 1 .2 2.6 0 3.5zm-284.5 9.4c4.3 5.2 8.4 12.7 7.4 13.6-.2.2-2.3-1.8-4.6-4.4-4-4.6-8.1-11.5-10-17.1l-1-2.7 1.8 2.5c.9 1.3 3.8 5 6.4 8.1zm188.9 11.2c-1 .9-1.1.8-.5-.6.3-1 .9-1.5 1.2-1.2.3.3 0 1.1-.7 1.8zm-81.6 4.5c-.3.3-1.6-.5-2.8-1.7l-2.2-2.3 2.8 1.7c1.5 1 2.5 2 2.2 2.3zm82.5.3c0 .5-1.1 1.1-2.4 1.5-3.2.8-4.9 2.9-7 8.7-1 2.7-2 4.6-2.3 4.3-.3-.3.2-2.1 1.1-4.1 3.3-6.9 2.1-6.9-13.1.5-7.9 3.9-14.3 7.5-14.3 8 0 .6-1.3 1-3 1-1.6 0-3-.4-3-1 0-1-14.9-6-18.1-6-2.5 0-2.4 1.5.3 3.4 1.2.9 1.8 1.6 1.2 1.6-.6 0-2.2-1.1-3.5-2.4-3.2-3.1-6.2-4.6-9.6-4.7-2.3-.2-2.4-.2-.5-.6 2.8-.6 2.8-1.8 0-3.7-1.2-.9-1.9-1.8-1.6-2.1.3-.3 2.2.8 4.3 2.5 2.1 1.7 4.8 3.2 5.9 3.5 8.7 1.8 16.7 4 20.3 5.7 4.2 2 4.2 2 7.5 0 5.5-3.3 25.2-13 28-13.7 1.5-.4 3.4-1.5 4.3-2.5 1.6-1.7 5.5-1.7 5.5.1zm7 12.6c0 .5-1 1.9-2.1 3.3l-2 2.5 1.6-3.3c1.5-3 2.5-4.1 2.5-2.5zm-20 7.3c0 .5-.5 1-1.1 1-.5 0-.7-.5-.4-1 .3-.6.8-1 1.1-1 .2 0 .4.4.4 1zm-36.6 8.5c.7 4.6.1 8.5-1.3 8.5-1.8 0-3.2-3-3.8-7.9-.6-4.9-.5-5.1 1.9-5.1 2.3 0 2.7.5 3.2 4.5zm19.2-3c1.7.5.6 9-1.8 14.2-1.7 4-2.1 4.3-5.6 4.3-5.9 0-7.1-1.5-8.2-10.4-.5-4.3-.7-8.2-.5-8.7.5-.7 13.3-.2 16.1.6zm8.4 4.4c0 2.8-.7 4.8-2.5 6.8-3.1 3.6-4.5 1.9-3.4-4 .4-2.3.8-4.8.9-5.5 0-.6 1.1-1.2 2.5-1.2 2.2 0 2.5.4 2.5 3.9zm-2 10.1c0 .5-.4 1-1 1-.5 0-1-.5-1-1 0-.6.5-1 1-1 .6 0 1 .4 1 1zm-17.3 6.6c-.3.3-1.2.4-1.9.1-.8-.3-.5-.6.6-.6 1.1-.1 1.7.2 1.3.5z"/><path d="M401.4 261c-11.6 4.7-16.2 29.2-8.3 44.2 1.8 3.5 5.9 8.2 8.3 9.5 8.2 4.7 18.3-4.2 21.7-19.4 2.5-11-2.8-26.2-11.4-32.4-4.1-3-6.6-3.4-10.3-1.9zM358.1 343.7c-.1.7-.7 1.3-1.5 1.3s-1.8.4-2.1 1c-.3.6.1.7 1 .4.8-.4 2.2-.1 3 .6 1.7 1.4 1.8.6.5-2.5-.5-1.1-.9-1.4-.9-.8zM481.2 362c.7 1.1 1.7 2 2.2 2 .5 0 .1-.9-.9-2s-2-2-2.2-2c-.2 0 .2.9.9 2zM363.5 656c-.4.6.8 1 2.9 1 1.9 0 3.8-.5 4.1-1 .4-.6-.8-1-2.9-1-1.9 0-3.8.4-4.1 1zM357.3 656.7c.9.2 2.3.2 3 0 .6-.3-.1-.5-1.8-.5-1.6 0-2.2.2-1.2.5z"/></svg>